<?xml version="1.0" encoding="UTF-8"?>
<svg version="1.1" xmlns="http://www.w3.org/2000/svg" width="64" height="64">
<path d="M0 0 C8.04071716 5.46768767 14.35713546 11.78672485 16.953125 21.328125 C17.97008074 32.73931439 17.08780568 41.52074309 9.640625 50.578125 C3.75028057 56.89640044 -1.9995096 60.87830798 -10.81640625 61.6640625 C-22.23808647 61.92046185 -29.76998744 60.10045244 -38.2578125 52.1875 C-45.41707366 44.7468705 -47.46537447 37.63799487 -47.41040039 27.37304688 C-47.154444 17.46241552 -43.06295379 11.07888989 -36.046875 4.328125 C-26.55128048 -3.80505814 -11.27874483 -6.1129075 0 0 Z M-15.046875 9.328125 C-15.33409424 9.84721436 -15.62131348 10.36630371 -15.91723633 10.90112305 C-17.2303724 13.27312887 -18.54486179 15.64438211 -19.859375 18.015625 C-20.53709961 19.24055664 -20.53709961 19.24055664 -21.22851562 20.49023438 C-23.05984871 23.79198089 -24.88836473 27.07118222 -26.87109375 30.28515625 C-28.21314619 32.22416882 -28.21314619 32.22416882 -28.046875 34.328125 C-24.086875 34.328125 -20.126875 34.328125 -16.046875 34.328125 C-16.046875 39.278125 -16.046875 44.228125 -16.046875 49.328125 C-13.44249044 46.72374044 -12.08063912 44.88183145 -10.34765625 41.73046875 C-9.86103516 40.84681641 -9.37441406 39.96316406 -8.87304688 39.05273438 C-8.37353516 38.13298828 -7.87402344 37.21324219 -7.359375 36.265625 C-6.84826172 35.34201172 -6.33714844 34.41839844 -5.81054688 33.46679688 C-3.11780521 29.13403596 -3.11780521 29.13403596 -2.046875 24.328125 C-6.006875 24.328125 -9.966875 24.328125 -14.046875 24.328125 C-14.046875 19.378125 -14.046875 14.428125 -14.046875 9.328125 C-14.376875 9.328125 -14.706875 9.328125 -15.046875 9.328125 Z " fill="#E45038" transform="translate(47.046875,2.671875)"/>
</svg>
